<?xml version="1.0" encoding="iso-8859-1"?>
<!-- Generator: Adobe Illustrator 19.0.0, SVG Export Plug-In . SVG Version: 6.00 Build 0)  -->
<svg version="1.1" id="Capa_1" xmlns="http://www.w3.org/2000/svg" xmlns:xlink="http://www.w3.org/1999/xlink" x="0px" y="0px"
	 viewBox="0 0 512 512" style="enable-background:new 0 0 512 512;" xml:space="preserve">
<path style="fill:#E82934;" d="M512,250.373c0,127.616-102.5,232.392-233.208,243.383c-1.794,0.151-3.331-1.281-3.331-3.081V468.29
	c0-1.598,1.222-2.921,2.814-3.069c114.472-10.683,203.928-102.796,203.928-214.848C482.202,131.118,380.93,34.456,256,34.456
	c-124.919,0-226.202,96.663-226.202,215.917c0,105.181,78.809,192.79,183.126,211.987c18.514-20.616,27.308-67.219,29.9-106.446
	l0.004-0.058c0.159-2.293-2.253-3.876-4.293-2.817l-59.636,30.96c-1.142,0.628-2.51-0.154-2.643-1.512
	c-0.854-8.323-6.902-30.894-48.168-15.185c-1.615,0.628-3.075-1.265-2.181-2.829c6.367-11.142,18.679-38.075-2.901-49.741
	c-1.234-0.679-1.358-2.51-0.216-3.343l19.728-14.382c0.066-0.054,0.176-0.143,0.242-0.197c5.355-4.918,3.905-14.163-2.721-16.942
	l-42.326-17.736c-1.327-0.556-1.574-2.438-0.442-3.354c7.745-6.265,26.938-27.118-6.819-60.79c-1.378-1.378-0.123-3.817,1.707-3.302
	c17.321,4.866,56.139,11.039,52.231-32.838c-0.144-1.646,1.584-2.716,2.859-1.79l42.727,31.264
	c7.385,5.401,17.239-1.327,15.727-10.72l-8.938-55.09c-0.257-1.615,1.368-2.839,2.715-2.016c7.632,4.671,26.249,12.53,37.193-13.168
	c9.638-22.602,15.161-35.554,17.66-41.449c0.658-1.523,2.685-1.523,3.333,0c2.51,5.895,8.033,18.847,17.66,41.449
	c10.944,25.699,29.561,17.839,37.203,13.168c1.337-0.823,2.973,0.401,2.705,2.016l-8.918,55.09
	c-1.533,9.392,8.331,16.121,15.717,10.72l42.727-31.264c1.275-0.926,2.993,0.144,2.849,1.79
	c-3.898,43.877,34.92,37.704,52.241,32.838c1.831-0.514,3.086,1.924,1.697,3.302c-33.747,33.671-14.565,54.525-6.819,60.79
	c1.142,0.915,0.885,2.798-0.442,3.354l-42.326,17.736c-6.625,2.78-8.076,12.024-2.721,16.942c0.066,0.054,0.176,0.143,0.242,0.197
	l19.728,14.382c1.142,0.833,1.029,2.665-0.216,3.343c-21.569,11.666-9.257,38.599-2.89,49.741c0.895,1.564-0.566,3.457-2.181,2.829
	c-41.276-15.709-47.324,6.862-48.178,15.185c-0.134,1.358-1.502,2.14-2.633,1.512l-62.299-29.16c-1.9-0.889-4.095,0.425-4.198,2.521
	c-0.145,2.95-0.338,6.102-0.575,9.428c-1.975,27.962-7.097,68.032-13.978,101.405c0,0-7.714,32.406-13.629,37.807
	c-5.359-0.298-7.581-12.397-12.847-12.993c-7.467-0.843-14.842-1.996-22.104-3.446C87.284,466.444,0,368.135,0,250.373
	C0,115.409,114.613,6,256,6S512,115.409,512,250.373z"/>
<g>
	<path style="fill:#C7232C;" d="M197.145,123.966c0.171-0.14,0.339-0.3,0.509-0.449
		C197.462,123.637,197.286,123.781,197.145,123.966z"/>
	<path style="fill:#C7232C;" d="M419.851,194.681c-7.215,2.027-18.159,4.277-28.193,3.047c-0.074,0.111-0.158,0.219-0.26,0.32
		c-33.747,33.681-14.565,54.535-6.819,60.8c1.142,0.915,0.885,2.798-0.442,3.354l-42.326,17.736
		c-6.645,2.788-8.085,12.077-2.674,16.985c0.062,0.052,0.123,0.103,0.195,0.154l19.728,14.372c1.142,0.843,1.029,2.675-0.216,3.343
		c-20.175,10.922-10.707,35.181-4.189,47.398c6.933-0.958,16.384,0.214,29.268,5.118c1.615,0.617,3.075-1.265,2.181-2.829
		c-6.367-11.152-18.679-38.074,2.89-49.751c1.245-0.669,1.358-2.5,0.216-3.343l-19.728-14.372c-0.072-0.051-0.134-0.102-0.195-0.154
		c-5.41-4.907-3.97-14.197,2.674-16.985l42.326-17.736c1.327-0.556,1.584-2.438,0.442-3.354c-7.745-6.266-26.928-27.119,6.819-60.8
		C422.936,196.604,421.682,194.166,419.851,194.681z"/>
	<path style="fill:#C7232C;" d="M266.039,366.788c-1.975,27.962-7.097,68.032-13.978,101.405c0,0-7.714,32.406-13.629,37.807
		c-5.359-0.298-7.581-12.397-12.847-12.993c-7.467-0.843-14.842-1.996-22.104-3.446c-0.01-0.535-0.154-0.833-0.453-0.885
		c3.693-10.792,9.895-26.316,9.895-26.316c18.514-20.616,27.308-67.219,29.9-106.446L266.039,366.788z"/>
	<path style="fill:#C7232C;" d="M256,6.005c-5.242,0-10.442,0.169-15.606,0.465c122.15,6.531,221.413,94.792,238.754,208.434
		c1.998,11.54,3.055,23.383,3.055,35.463c0,11.726-0.994,23.229-2.879,34.447C464.115,387.887,381.54,470.313,275.46,490.193v0.486
		c0,1.801,1.537,3.232,3.331,3.081C409.501,482.759,512,377.984,512,250.367C512,115.404,397.387,6.005,256,6.005z"/>
	<path style="fill:#C7232C;" d="M2.579,215.679C0.892,227.012,0,238.59,0,250.367c0,12.04,0.921,23.874,2.683,35.447
		C18.054,374.79,80.064,439.042,172.429,456.03c7.779,1.286,15.13,0.167,15.13,0.167C96.095,428.521,29.798,346.835,29.798,250.367
		c0-114.236,92.958-207.741,210.597-215.396c-4.81-0.291-9.657-0.457-14.544-0.457C113.326,34.515,19.996,112.959,2.579,215.679z"/>
</g>
<g>
</g>
<g>
</g>
<g>
</g>
<g>
</g>
<g>
</g>
<g>
</g>
<g>
</g>
<g>
</g>
<g>
</g>
<g>
</g>
<g>
</g>
<g>
</g>
<g>
</g>
<g>
</g>
<g>
</g>
</svg>
