<svg height="512" viewBox="0 0 64 64" width="512" xmlns="http://www.w3.org/2000/svg"><g id="website-megaphone-man-Digital_Marketing" data-name="website-megaphone-man-Digital Marketing"><path d="m3 11h52v38h-52z" fill="#a094f7"/><path d="m3 3h52v8h-52z" fill="#6452e2"/><path d="m28 54v7h-3l-1-7z" fill="#c7bec5"/><path d="m11 48v4h-2a2 2 0 0 1 -1.73-3 1.813 1.813 0 0 1 .32-.41 1.955 1.955 0 0 1 1.41-.59z" fill="#ec455a"/><path d="m21 46v8l-10 4v-16z" fill="#f6cc4f"/><path d="m21 46h7v8h-7z" fill="#e8e5fb"/><g fill="#ec455a"><path d="m31 49v3h-3v-4h3z"/><path d="m12 28h4v7h-4z"/><path d="m26 17h4v18h-4z"/><path d="m19 21h4v14h-4z"/><path d="m6 6h2v2h-2z"/></g><path d="m10 6h2v2h-2z" fill="#f6cc4f"/><path d="m14 6h2v2h-2z" fill="#5bcbfa"/><path d="m9 34h24v2h-24z" fill="#f3ac3c"/><path d="m61 50a4 4 0 0 0 -4-4h-8v15h12z" fill="#392586"/><path d="m41 46a4 4 0 0 0 -4 4v11h12v-15z" fill="#27255e"/><path d="m52 46-3 3-3-3v-5h6z" fill="#f09898"/><path d="m42 27h14a0 0 0 0 1 0 0v9a7 7 0 0 1 -7 7 7 7 0 0 1 -7-7v-9a0 0 0 0 1 0 0z" fill="#f3b1b2"/><path d="m60 31v1a2.006 2.006 0 0 1 -2 2h-2v-5h2a2.006 2.006 0 0 1 2 2z" fill="#f09898"/><path d="m42 29v5h-2a2.006 2.006 0 0 1 -2-2v-1a2.006 2.006 0 0 1 2-2z" fill="#f09898"/><path d="m56 24v3h-14a4 4 0 0 1 -4-4v-1h16a2 2 0 0 1 2 2z" fill="#1d153c"/><path d="m46 30a1 1 0 0 0 -1 1v1a1 1 0 0 0 2 0v-1a1 1 0 0 0 -1-1z"/><path d="m52 30a1 1 0 0 0 -1 1v1a1 1 0 0 0 2 0v-1a1 1 0 0 0 -1-1z"/><path d="m44 46h2l3 3-2 3z" fill="#e8e5fb"/><path d="m54 46h-2l-3 3 2 3z" fill="#e8e5fb"/><path d="m49 49-2 3 2 3 2-3z" fill="#5bcbfa"/><path d="m49 55-7-3 2-6z" fill="#39397c"/><path d="m49 55 7-3-2-6z" fill="#39397c"/></g></svg>