<svg id="Capa_1" enable-background="new 0 0 512 512" height="512" viewBox="0 0 512 512" width="512" xmlns="http://www.w3.org/2000/svg"><g><path d="m60 32.133h181v30h-181z" fill="#3ec3ff"/><path d="m271 32.133h181v30h-181z" fill="#09a1e5"/><circle cx="45" cy="45" fill="#09a1e5" r="45"/><circle cx="467" cy="45" fill="#077ccc" r="45"/><path d="m301 0h-45l-30 45 30 45h45z" fill="#bfebff"/><path d="m211 0h45v90h-45z" fill="#dff5ff"/><path d="m271 140.392-75 174.209 60 137.399 60-30 73.177-107.399z" fill="#ffb24a"/><path d="m241 140.392-118.176 174.209 73.176 107.399 60 30v-311.608z" fill="#ffd23b"/><path d="m246 286h25v-145.608l-15-22.112-10 22.112z" fill="#ff9259"/><path d="m256 286v-167.72l-15 22.112v145.608z" fill="#ffb24a"/><path d="m256 271-22.5 45 22.5 45c24.853 0 45-20.147 45-45s-20.147-45-45-45z" fill="#622876"/><path d="m211 316c0 24.853 20.147 45 45 45v-90c-24.853 0-45 20.147-45 45z" fill="#962b7c"/><path d="m391 497c0-41.355-33.645-75-75-75h-60l-50 45 50 45h135z" fill="#16202d"/><path d="m196 422c-41.355 0-75 33.645-75 75v15h135v-90z" fill="#2d3e53"/></g></svg>