<?xml version="1.0" encoding="UTF-8" standalone="no"?> <svg id="Layer_1" data-name="Layer 1" xmlns="http://www.w3.org/2000/svg" viewBox="0 0 128 128"><defs><style>.cls-1{fill:#2e79bd;}.cls-2{fill:#2d3e50;}</style></defs><title>b</title><path class="cls-1" d="M125.53932,7.36692,98.33991,9.70459a.71481.71481,0,0,0-.42923,1.2322l6.86128,6.47108-1.523,1.55452-1.01628,1.03715-5.15883,5.35552q-2.98173,3.1427-5.93965,6.30028-2.119,2.271-4.21409,4.56874-5.01576,5.48962-9.9034,11.10443c-1.62126,1.87758-3.23656,3.76407-4.828,5.67146-.42318.50664-.84043,1.01924-1.26064,1.52887l-1.70173-.95668L42.67516,38.647l-4.23795-2.38125-3.03687,3.3081L31.6005,43.71347,1.68465,76.29962,7.967,82.427l32.3686-31.23611h.003L59.28711,63.51728l9.68883,6.30326,3.51372,2.28585.80467.52154L77.866,68.62247q2.80744-2.46319,5.52838-5.00683c1.821-1.69279,3.61506-3.40644,5.40322-5.12606q5.35555-5.17223,10.55311-10.48753c3.48094-3.53161,6.89632-7.1258,10.30276-10.726l5.06943-5.442.68545-.748,1.79243-1.95615,6.55115,6.1786a.71481.71481,0,0,0,1.20433-.48371l1.35809-26.70946A.71479.71479,0,0,0,125.53932,7.36692Z"/><path class="cls-2" d="M8.10347,118.29751a2.34167,2.34167,0,0,0,2.33824,2.33825H26.65a2.34169,2.34169,0,0,0,2.33825-2.33825V71.00394L8.10347,91.158Z"/><path class="cls-2" d="M37.06576,63.208v55.08947a2.34167,2.34167,0,0,0,2.33824,2.33825H55.61226a2.34169,2.34169,0,0,0,2.33824-2.33825V70.25464l-16.838-10.95252Z"/><path class="cls-2" d="M73.87179,80.60135l-7.84374-5.09364v42.7898a2.34167,2.34167,0,0,0,2.33824,2.33825H84.57455a2.34169,2.34169,0,0,0,2.33824-2.33825V69.05364c-1.55705,1.4428-3.18585,2.90952-4.84121,4.36294Z"/><path class="cls-2" d="M103.8916,52.47871c-3.20977,3.26822-6.14319,6.19368-8.90125,8.88531v56.93349a2.34167,2.34167,0,0,0,2.33824,2.33825h16.20825a2.34169,2.34169,0,0,0,2.33824-2.33825V39.95318L114.28614,41.659C110.994,45.13716,107.48133,48.83849,103.8916,52.47871Z"/></svg>